<?xml version="1.0" encoding="UTF-8" standalone="no"?>
<svg width="20px" height="20px" viewBox="0 0 80 80" version="1.1" xmlns="http://www.w3.org/2000/svg" xmlns:xlink="http://www.w3.org/1999/xlink">
    <!-- Generator: Sketch 3.6.1 (26313) - http://www.bohemiancoding.com/sketch -->
    <title>Vinyl Mark Comparison</title>
    <desc>Created with Sketch.</desc>
    <defs></defs>
    <g id="Page-1" stroke="none" stroke-width="1" fill="none" fill-rule="evenodd">
        <g id="Desktop" transform="translate(-744.000000, -1394.000000)">
            <g id="Vinyl-Mark-Comparison" transform="translate(744.000000, 1394.000000)">
                <g id="Group" fill="#333333">
                    <path d="M25.5275494,55.4082256 L25.736771,55.1822371 L25.736771,55.1822371 L28.323245,52.3843546 L28.4165563,52.2837533 L29.8001887,50.7863977 C29.8169556,50.8024356 29.8344515,50.8162865 29.8512184,50.8323244 C27.1021785,48.1751378 25.3868534,44.4558057 25.3868534,40.3311523 C25.3868534,32.2568045 31.9288539,25.7133459 40.0053888,25.7133459 C42.6705943,25.7111589 45.160841,26.4343219 47.312105,27.6801743 L50.191635,22.4255788 L50.191635,22.4255788 L50.339621,22.1543927 L50.34035,22.1543927 L53.2818445,16.7882609 L53.2803866,16.7875319 L53.4371205,16.5010369 L53.4385785,16.5017659 L56.388092,11.1203253 C56.387363,11.1203253 56.386634,11.1195963 56.385176,11.1188673 L56.5426389,10.8316433 C56.5440969,10.8323723 56.5448259,10.8323723 56.5455549,10.8331013 L58.107791,7.97544118 L58.110707,7.96960922 L59.2384622,5.90655356 C53.7024746,2.79884816 47.3485548,0.977089815 40.5761918,0.869198565 L39.9339473,0.869198565 C18.2339551,0.903461327 0.648410299,18.357787 0.409299961,40.0125816 L0.412944936,40.0154975 L0.412944936,40.3923879 C0.434814784,51.7231562 5.2104606,61.9225243 12.8444955,69.1249943 L14.8171558,66.9926841 L14.8222588,66.9868521 L16.7650303,64.8873467 L16.7643013,64.8866177 L16.9902897,64.6424044 C16.9902897,64.6424044 16.9902897,64.6431334 16.9910187,64.6431334 L21.1521218,60.1423187 L21.1513928,60.1415897 L21.3737363,59.9010214 L21.3737363,59.9017503 L25.5275494,55.4082256 L25.5275494,55.4082256 Z" id="Fill-13"></path>
                    <path d="M67.4946943,12.0726843 L63.6725738,16.1820288 C63.6725738,16.1820288 63.6725738,16.1827578 63.6733028,16.1827578 L63.4495014,16.4233261 C63.4495014,16.4233261 63.4487724,16.4233261 63.4487724,16.4225971 L59.2738184,20.9153929 L59.2745474,20.9161219 L59.0529329,21.1545032 L59.0529329,21.1537742 L54.8823529,25.641467 L54.8823529,25.642196 L54.6716734,25.8689134 L54.6716734,25.8689134 L53.1320361,27.5251899 L53.1218302,27.5361249 L50.5885728,30.2632949 C53.0831934,32.8854897 54.6235597,36.4254891 54.6235597,40.3307149 C54.6250177,48.4014179 48.0793722,54.9485214 40.0086693,54.9485214 C37.5548723,54.9485214 35.2454164,54.3368946 33.2144365,53.268917 L33.2151655,53.268917 L30.2802319,58.4928947 L26.1286057,65.8819874 L23.9649488,69.7332676 L23.9649488,69.7332676 L23.8038409,70.0204916 L20.9753405,75.0542017 C26.6017234,78.1422242 33.0606186,79.9056629 39.9343118,79.9187848 C61.7662521,79.9187848 79.4684361,62.2166009 79.4684361,40.3926795 C79.4655201,29.2820677 74.872852,19.2525554 67.4946943,12.0726843" id="Fill-14"></path>
                    <path d="M40.0048056,37.5574724 C38.4746452,37.5574724 37.2302509,38.7967638 37.2302509,40.3320271 C37.2302509,41.8600005 38.4746452,43.0992919 40.0048056,43.0992919 C41.53205,43.0992919 42.7844633,41.8600005 42.7844633,40.3320271 C42.7844633,38.7967638 41.53205,37.5574724 40.0048056,37.5574724" id="Fill-15"></path>
                </g>
            </g>
        </g>
    </g>
</svg>